0
SECTION
2
HEADER
9
$INSUNITS
70
4
9
$ACADVER
1
AC1014
9
$HANDSEED
5
FFFF
0
ENDSEC
0
SECTION
2
TABLES
0
TABLE
2
VPORT
5
8
100
AcDbSymbolTable
0
ENDTAB
0
TABLE
2
LTYPE
5
5
100
AcDbSymbolTable
0
LTYPE
5
14
100
AcDbSymbolTableRecord
100
AcDbLinetypeTableRecord
2
BYBLOCK
70
0
0
LTYPE
5
15
100
AcDbSymbolTableRecord
100
AcDbLinetypeTableRecord
2
BYLAYER
70
0
0
ENDTAB
0
TABLE
2
LAYER
5
2
100
AcDbSymbolTable
70
2
0
LAYER
5
50
100
AcDbSymbolTableRecord
100
AcDbLayerTableRecord
2
0
70
0
6
CONTINUOUS
0
ENDTAB
0
TABLE
2
STYLE
5
3
100
AcDbSymbolTable
70
1
0
STYLE
5
11
100
AcDbSymbolTableRecord
100
AcDbTextStyleTableRecord
2
STANDARD
70
0
0
ENDTAB
0
TABLE
2
VIEW
5
6
100
AcDbSymbolTable
70
0
0
ENDTAB
0
TABLE
2
UCS
5
7
100
AcDbSymbolTable
70
0
0
ENDTAB
0
TABLE
2
APPID
5
9
100
AcDbSymbolTable
70
2
0
APPID
5
12
100
AcDbSymbolTableRecord
100
AcDbRegAppTableRecord
2
ACAD
70
0
0
ENDTAB
0
TABLE
2
DIMSTYLE
5
A
100
AcDbSymbolTable
70
1
0
ENDTAB
0
TABLE
2
BLOCK_RECORD
5
1
100
AcDbSymbolTable
70
1
0
BLOCK_RECORD
5
1F
100
AcDbSymbolTableRecord
100
AcDbBlockTableRecord
2
*MODEL_SPACE
0
BLOCK_RECORD
5
1B
100
AcDbSymbolTableRecord
100
AcDbBlockTableRecord
2
*PAPER_SPACE
0
ENDTAB
0
ENDSEC
0
SECTION
2
BLOCKS
0
BLOCK
5
20
100
AcDbEntity
100
AcDbBlockBegin
2
*MODEL_SPACE
0
ENDBLK
5
21
100
AcDbEntity
100
AcDbBlockEnd
0
BLOCK
5
1C
100
AcDbEntity
100
AcDbBlockBegin
2
*PAPER_SPACE
0
ENDBLK
5
1D
100
AcDbEntity
100
AcDbBlockEnd
0
ENDSEC
0
SECTION
2
ENTITIES
0
CIRCLE
5
100
100
AcDbEntity
8
0
100
AcDbCircle
10
14.999718901540053
20
75.020989826988057
30
0
40
1.5000000000000013
210
0
220
-0
230
1
0
CIRCLE
5
101
100
AcDbEntity
8
0
100
AcDbCircle
10
-15.000281098459951
20
45.020989826988057
30
0
40
1.5000000000000013
210
0
220
-0
230
1
0
CIRCLE
5
102
100
AcDbEntity
8
0
100
AcDbCircle
10
14.999718901540053
20
45.020989826988057
30
0
40
1.4999999999999991
210
0
220
-0
230
1
0
CIRCLE
5
103
100
AcDbEntity
8
0
100
AcDbCircle
10
-15.000281098459951
20
75.020989826988057
30
0
40
1.5000000000000013
210
0
220
-0
230
1
0
LWPOLYLINE
5
104
100
AcDbEntity
8
0
100
AcDbPolyline
90
4
70
1
43
0.0
10
-17.876278989353921
20
93.823111544449091
42
-0.99999999999999989
10
-16.376278989353924
20
93.823111544449091
10
-16.376278989353924
20
90.823111544449105
42
-0.99999999999999989
10
-17.876278989353921
20
90.823111544449105
0
LINE
5
105
100
AcDbEntity
8
0
100
AcDbLine
10
-21.126278989353928
20
93.823111544449091
30
0
11
-20.376278989353924
21
93.823111544449091
31
0
0
LINE
5
106
100
AcDbEntity
8
0
100
AcDbLine
10
-20.376278989353924
20
93.823111544449091
30
0
11
-20.376278989353924
21
90.823111544449091
31
0
0
ARC
5
107
100
AcDbEntity
8
0
100
AcDbCircle
10
-21.126278989353928
20
90.823111544449119
30
0
40
0.75000000000000178
210
0
220
0
230
1
100
AcDbArc
50
180
51
360
0
LINE
5
108
100
AcDbEntity
8
0
100
AcDbLine
10
-21.876278989353928
20
90.823111544449105
30
0
11
-21.876278989353924
21
93.823111544449119
31
0
0
ARC
5
109
100
AcDbEntity
8
0
100
AcDbCircle
10
-21.126278989353928
20
93.823111544449091
30
0
40
0.74999999999999289
210
0
220
-0
230
1
100
AcDbArc
50
90
51
180
0
LINE
5
110
100
AcDbEntity
8
0
100
AcDbLine
10
-21.126278989353928
20
94.573111544449091
30
0
11
-21.126278989353928
21
93.823111544449091
31
0
0
CIRCLE
5
111
100
AcDbEntity
8
0
100
AcDbCircle
10
-14.999999999999982
20
8.1247433584345075
30
0
40
1.5000000000000036
210
0
220
-0
230
1
0
CIRCLE
5
112
100
AcDbEntity
8
0
100
AcDbCircle
10
-14.999999999999982
20
-21.875256641565493
30
0
40
1.4999999999999969
210
0
220
-0
230
1
0
CIRCLE
5
113
100
AcDbEntity
8
0
100
AcDbCircle
10
15.000000000000018
20
8.1247433584345075
30
0
40
1.4999999999999991
210
0
220
-0
230
1
0
ARC
5
114
100
AcDbEntity
8
0
100
AcDbCircle
10
-23.326530980934077
20
-14.138616271253762
30
0
40
1.5566268998202351
210
0
220
0
230
1
100
AcDbArc
50
-179.99965971255696
51
0.00034028744304914266
0
LINE
5
115
100
AcDbEntity
8
0
100
AcDbLine
10
-24.883157880726859
20
-14.138625516271723
30
0
11
-24.883244155232379
21
0.38781634298749701
31
0
0
ARC
5
116
100
AcDbEntity
8
0
100
AcDbCircle
10
-23.326617259015272
20
0.38782589727941419
30
0
40
1.5566268998202362
210
0
220
-0
230
1
100
AcDbArc
50
0.00032890348482425438
51
180.00035167080546
0
LINE
5
117
100
AcDbEntity
8
0
100
AcDbLine
10
-21.769990359220685
20
0.38783483302341049
30
0
11
-21.769904081141295
21
-14.1386070262358
31
0
0
CIRCLE
5
118
100
AcDbEntity
8
0
100
AcDbCircle
10
15.000000000000018
20
-21.875256641565493
30
0
40
1.5000000000000036
210
0
220
-0
230
1
0
ARC
5
119
100
AcDbEntity
8
0
100
AcDbCircle
10
24.254752782089675
20
-73.339992183239389
30
0
40
22.957722796244123
210
0
220
-0
230
1
100
AcDbArc
50
51.213926298876224
51
84.535740203781131
0
LINE
5
120
100
AcDbEntity
8
0
100
AcDbLine
10
38.635800178752383
20
-55.444671237133733
30
0
11
85.679302642575749
21
-93.249795865786908
31
0
0
LINE
5
121
100
AcDbEntity
8
0
100
AcDbLine
10
85.679302642575749
20
-93.249795865786908
30
0
11
95.625862599923309
21
-107.03623648745898
31
0
0
LINE
5
122
100
AcDbEntity
8
0
100
AcDbLine
10
95.625862599923309
20
-107.03623648745898
30
0
11
125.39948505316707
21
-117.91839647579303
31
0
0
LINE
5
123
100
AcDbEntity
8
0
100
AcDbLine
10
125.39948505316707
20
-117.91839647579303
30
0
11
131.49756238821129
21
-110.64169165092162
31
0
0
LINE
5
124
100
AcDbEntity
8
0
100
AcDbLine
10
131.49756238821129
20
-110.64169165092162
30
0
11
131.49756238821132
21
-106.31606069432289
31
0
0
LINE
5
125
100
AcDbEntity
8
0
100
AcDbLine
10
131.49756238821132
20
-106.31606069432289
30
0
11
114.50021097294608
21
-79.573190327241605
31
0
0
LINE
5
126
100
AcDbEntity
8
0
100
AcDbLine
10
114.50021097294608
20
-79.573190327241605
30
0
11
100.70783140531503
21
-74.557621137365118
31
0
0
LINE
5
127
100
AcDbEntity
8
0
100
AcDbLine
10
100.70783140531503
20
-74.557621137365118
30
0
11
33.802742159139768
21
-20.765856791136343
31
0
0
SPLINE
5
128
100
AcDbEntity
8
0
100
AcDbSpline
70
4
71
5
72
16
73
10
74
0
42
0.000000001
43
0.0000000001
44
0.0000000001
40
-1
40
-1
40
-1
40
-1
40
-1
40
-1
40
-0.80000000000000004
40
-0.60000000000000009
40
-0.40000000000000002
40
-0.20000000000000001
40
0
40
0
40
0
40
0
40
0
40
0
41
1
41
1
41
1
41
1
41
1
41
1
41
1
41
1
41
1
41
1
10
33.802742159139768
20
-20.765856791136343
30
0
10
33.521852040072474
20
-20.540020830639278
30
0
10
33.00877103963429
20
-20.060695486007578
30
0
10
32.385117468988881
20
-19.25882405811894
30
0
10
31.806666536871351
20
-18.048692636450205
30
0
10
31.374454287506243
20
-16.393293304140748
30
0
10
31.186237674195727
20
-15.019012368264413
30
0
10
31.115685530469751
20
-13.984482442235695
30
0
10
31.100001225817987
20
-13.295930430324709
30
0
10
31.100001225817987
20
-12.951939878166723
30
0
0
LINE
5
129
100
AcDbEntity
8
0
100
AcDbLine
10
31.100001225817987
20
-12.951939878166723
30
0
11
31.100001225817984
21
-6.8750719267950089
31
0
0
LINE
5
130
100
AcDbEntity
8
0
100
AcDbLine
10
31.100001225817984
20
-6.8750719267950089
30
0
11
31.099929040144385
21
-0.79820397585202763
31
0
0
SPLINE
5
131
100
AcDbEntity
8
0
100
AcDbSpline
70
4
71
5
72
16
73
10
74
0
42
0.000000001
43
0.0000000001
44
0.0000000001
40
0
40
0
40
0
40
0
40
0
40
0
40
0.20000000000000001
40
0.40000000000000002
40
0.60000000000000009
40
0.80000000000000004
40
1
40
1
40
1
40
1
40
1
40
1
41
1
41
1
41
1
41
1
41
1
41
1
41
1
41
1
41
1
41
1
10
31.099929040144385
20
-0.79820397585202763
30
0
10
31.099924953962173
20
-0.45421342371831486
30
0
10
31.115601079466732
20
0.23433877445421913
30
0
10
31.186140934252016
20
1.2688695384821536
30
0
10
31.374341222791852
20
2.6431527100420649
30
0
10
31.806533808030281
20
4.2985571763815678
30
0
10
32.384970365242765
20
5.5086954692463852
30
0
10
33.008614410603592
20
6.310574305311345
30
0
10
33.521689717213462
20
6.7899057446767852
30
0
10
33.8025771536091
20
7.015745041785042
30
0
0
LINE
5
132
100
AcDbEntity
8
0
100
AcDbLine
10
33.802577153609107
20
7.0157450417850411
30
0
11
100.70702741544908
21
60.808304133911037
31
0
0
LINE
5
133
100
AcDbEntity
8
0
100
AcDbLine
10
100.70702741544908
20
60.808304133911037
30
0
11
114.4993474033498
21
65.824037159840429
31
0
0
LINE
5
134
100
AcDbEntity
8
0
100
AcDbLine
10
114.4993474033498
20
65.824037159840429
30
0
11
131.49638114519928
21
92.567109432542395
31
0
0
LINE
5
135
100
AcDbEntity
8
0
100
AcDbLine
10
131.49638114519928
20
92.567109432542395
30
0
11
131.49632976205473
21
96.892740388835946
31
0
0
LINE
5
136
100
AcDbEntity
8
0
100
AcDbLine
10
131.49632976205473
20
96.892740388835946
30
0
11
125.39816598918938
21
104.16937277557919
31
0
0
LINE
5
137
100
AcDbEntity
8
0
100
AcDbLine
10
125.39816598918938
20
104.16937277557919
30
0
11
95.624672804644632
21
93.286859114210898
31
0
0
LINE
5
138
100
AcDbEntity
8
0
100
AcDbLine
10
95.624672804644632
20
93.286859114210898
30
0
11
85.678276613858316
21
79.500300340684021
31
0
0
LINE
5
139
100
AcDbEntity
8
0
100
AcDbLine
10
85.678276613858316
20
79.500300340684021
30
0
11
33.280176374832955
21
37.391086582115506
31
0
0
SPLINE
5
140
100
AcDbEntity
8
0
100
AcDbSpline
70
4
71
5
72
16
73
10
74
0
42
0.000000001
43
0.0000000001
44
0.0000000001
40
-1
40
-1
40
-1
40
-1
40
-1
40
-1
40
-0.80000000000000004
40
-0.60000000000000009
40
-0.40000000000000002
40
-0.20000000000000001
40
0
40
0
40
0
40
0
40
0
40
0
41
1
41
1
41
1
41
1
41
1
41
1
41
1
41
1
41
1
41
1
10
33.280176374832948
20
37.391086582115499
30
0
10
32.896189034587763
20
37.082352834062448
30
0
10
32.104116141202354
20
36.567837741954904
30
0
10
30.843816388922491
20
36.104666213354371
30
0
10
29.072873024478284
20
36.037981750595875
30
0
10
26.998788555263175
20
36.698944405464253
30
0
10
25.761062381243907
20
37.788845962091635
30
0
10
25.256521860452423
20
38.96496997170216
30
0
10
25.144093108731965
20
39.92465137310937
30
0
10
25.143914759364392
20
40.448426630644178
30
0
0
LINE
5
141
100
AcDbEntity
8
0
100
AcDbLine
10
25.143914759364392
20
40.448426630644178
30
0
11
25.12437815519489
21
97.823398123542518
31
0
0
SPLINE
5
142
100
AcDbEntity
8
0
100
AcDbSpline
70
4
71
5
72
16
73
10
74
0
42
0.000000001
43
0.0000000001
44
0.0000000001
40
-1
40
-1
40
-1
40
-1
40
-1
40
-1
40
-0.80000000000000004
40
-0.60000000000000009
40
-0.40000000000000002
40
-0.20000000000000001
40
0
40
0
40
0
40
0
40
0
40
0
41
1
41
1
41
1
41
1
41
1
41
1
41
1
41
1
41
1
41
1
10
25.12437815519489
20
97.823398123542518
30
0
10
25.124237084359638
20
98.237694030906212
30
0
10
25.009344603260825
20
98.994624707788006
30
0
10
24.493531519947886
20
99.915260089358867
30
0
10
23.254577538641058
20
100.79793585910403
30
0
10
21.384394236188221
20
101.69868548878947
30
0
10
20.157005927411141
20
102.58454496031533
30
0
10
19.657585533493286
20
103.50969278457244
30
0
10
19.557434778131253
20
104.27068144064762
30
0
10
19.565618662271657
20
104.68726897211832
30
0
0
LINE
5
143
100
AcDbEntity
8
0
100
AcDbLine
10
19.56561866227166
20
104.68726897211832
30
0
11
19.675064504539797
21
110.25843450647807
31
0
0
ARC
5
144
100
AcDbEntity
8
0
100
AcDbCircle
10
12.013612952307675
20
110.25838900030992
30
0
40
7.6614515523672662
210
0
220
-0
230
1
100
AcDbArc
50
0.00034031528919861725
51
180.00034031528918
0
LINE
5
145
100
AcDbEntity
8
0
100
AcDbLine
10
4.3521614000755529
20
110.2583434941418
30
0
11
4.3521855007388588
21
104.68717861373557
31
0
0
ARC
5
146
100
AcDbEntity
8
0
100
AcDbCircle
10
-2.5118144997110603
20
104.68723398244676
30
0
40
6.8640000006732382
210
0
220
0
230
1
100
AcDbArc
50
270.00034030149016
51
359.99953782211372
0
LINE
5
147
100
AcDbEntity
8
0
100
AcDbLine
10
-2.5117737317967679
20
97.823233981894589
30
0
11
-23.125622063851363
21
97.822442412362449
31
0
0
ARC
5
148
100
AcDbEntity
8
0
100
AcDbCircle
10
-23.126278989353924
20
95.823111544449105
30
0
40
1.9993309758372306
210
0
220
-0
230
1
100
AcDbArc
50
89.981174172819124
51
180.00034030029542
0
LINE
5
149
100
AcDbEntity
8
0
100
AcDbLine
10
-25.125609965155903
20
95.823099669659797
30
0
11
-25.144476904403838
21
40.448127948703423
31
0
0
SPLINE
5
150
100
AcDbEntity
8
0
100
AcDbSpline
70
4
71
5
72
16
73
10
74
0
42
0.000000001
43
0.0000000001
44
0.0000000001
40
0
40
0
40
0
40
0
40
0
40
0
40
0.20000000000000001
40
0.40000000000000002
40
0.60000000000000009
40
0.80000000000000004
40
1
40
1
40
1
40
1
40
1
40
1
41
1
41
1
41
1
41
1
41
1
41
1
41
1
41
1
41
1
41
1
10
-25.144476904403831
20
40.448127948703416
30
0
10
-25.144649031969291
20
39.924352689086994
30
0
10
-25.257066383853982
20
38.96466995223301
30
0
10
-25.761592933711611
20
37.788539949388237
30
0
10
-26.999306160961368
20
36.698623690181982
30
0
10
-29.073382778611482
20
36.037636397802579
30
0
10
-30.844326935059666
20
36.104299823940032
30
0
10
-32.104632189155389
20
36.567456381705938
30
0
10
-32.896711194287704
20
37.081962064931069
30
0
10
-33.2807022018808
20
37.390691251667775
30
0
0
LINE
5
151
100
AcDbEntity
8
0
100
AcDbLine
10
-33.2807022018808
20
37.390691251667775
30
0
11
-85.679302642575777
21
79.499282582655937
31
0
0
LINE
5
152
100
AcDbEntity
8
0
100
AcDbLine
10
-85.679302642575777
20
79.499282582655937
30
0
11
-95.625862599923352
21
93.285723204328036
31
0
0
LINE
5
153
100
AcDbEntity
8
0
100
AcDbLine
10
-95.625862599923352
20
93.285723204328036
30
0
11
-125.3994850531671
21
104.1678831926621
31
0
0
LINE
5
154
100
AcDbEntity
8
0
100
AcDbLine
10
-125.3994850531671
20
104.1678831926621
30
0
11
-131.49756238821135
21
96.891178367790616
31
0
0
LINE
5
155
100
AcDbEntity
8
0
100
AcDbLine
10
-131.49756238821135
20
96.891178367790616
30
0
11
-131.49756238821135
21
92.565547411191886
31
0
0
LINE
5
156
100
AcDbEntity
8
0
100
AcDbLine
10
-131.49756238821135
20
92.565547411191886
30
0
11
-114.50021097294611
21
65.822677044110648
31
0
0
LINE
5
157
100
AcDbEntity
8
0
100
AcDbLine
10
-114.50021097294611
20
65.822677044110648
30
0
11
-100.70783140531502
21
60.807107854234168
31
0
0
LINE
5
158
100
AcDbEntity
8
0
100
AcDbLine
10
-100.70783140531502
20
60.807107854234168
30
0
11
-33.80274215913974
21
7.0153435080053672
31
0
0
SPLINE
5
159
100
AcDbEntity
8
0
100
AcDbSpline
70
4
71
5
72
16
73
10
74
0
42
0.000000001
43
0.0000000001
44
0.0000000001
40
-1
40
-1
40
-1
40
-1
40
-1
40
-1
40
-0.80000000000000004
40
-0.60000000000000009
40
-0.40000000000000002
40
-0.20000000000000001
40
0
40
0
40
0
40
0
40
0
40
0
41
1
41
1
41
1
41
1
41
1
41
1
41
1
41
1
41
1
41
1
10
-33.80274215913974
20
7.0153435080053672
30
0
10
-33.52185204007246
20
6.7895075475083111
30
0
10
-33.008771039634269
20
6.3101822028766108
30
0
10
-32.385117468988867
20
5.5083107749879812
30
0
10
-31.806666536871333
20
4.2981793533192558
30
0
10
-31.374454287506225
20
2.6427800210097985
30
0
10
-31.186237674195709
20
1.2684990851334543
30
0
10
-31.115685530469733
20
0.23396915910471883
30
0
10
-31.100001225817969
20
-0.45458285280625788
30
0
10
-31.100001225817969
20
-0.79857340496423568
30
0
0
LINE
5
160
100
AcDbEntity
8
0
100
AcDbLine
10
-31.100001225817969
20
-0.79857340496423523
30
0
11
-31.100001225817977
21
-6.8754413563359584
31
0
0
LINE
5
161
100
AcDbEntity
8
0
100
AcDbLine
10
-31.100001225817977
20
-6.8754413563359584
30
0
11
-31.099929040144367
21
-12.952309307278931
31
0
0
SPLINE
5
162
100
AcDbEntity
8
0
100
AcDbSpline
70
4
71
5
72
16
73
10
74
0
42
0.000000001
43
0.0000000001
44
0.0000000001
40
0
40
0
40
0
40
0
40
0
40
0
40
0.20000000000000001
40
0.40000000000000002
40
0.60000000000000009
40
0.80000000000000004
40
1
40
1
40
1
40
1
40
1
40
1
41
1
41
1
41
1
41
1
41
1
41
1
41
1
41
1
41
1
41
1
10
-31.099929040144367
20
-12.952309307278931
30
0
10
-31.099924953962159
20
-13.296299859412635
30
0
10
-31.115601079466714
20
-13.984852057585186
30
0
10
-31.186140934252006
20
-15.019382821613121
30
0
10
-31.374341222791841
20
-16.393665993173023
30
0
10
-31.806533808030274
20
-18.049070459512517
30
0
10
-32.384970365242751
20
-19.259208752377344
30
0
10
-33.00861441060357
20
-20.061087588442312
30
0
10
-33.521689717213441
20
-20.540419027807744
30
0
10
-33.802577153609079
20
-20.766258324915992
30
0
0
LINE
5
163
100
AcDbEntity
8
0
100
AcDbLine
10
-33.802577153609086
20
-20.766258324915992
30
0
11
-100.70702741544908
21
-74.558817417042022
31
0
0
LINE
5
164
100
AcDbEntity
8
0
100
AcDbLine
10
-100.70702741544908
20
-74.558817417042022
30
0
11
-114.49934740334983
21
-79.574550442971429
31
0
0
LINE
5
165
100
AcDbEntity
8
0
100
AcDbLine
10
-114.49934740334983
20
-79.574550442971429
30
0
11
-131.49638114519936
21
-106.31762271567341
31
0
0
LINE
5
166
100
AcDbEntity
8
0
100
AcDbLine
10
-131.49638114519936
20
-106.31762271567341
30
0
11
-131.49632976205478
21
-110.64325367196696
31
0
0
LINE
5
167
100
AcDbEntity
8
0
100
AcDbLine
10
-131.49632976205478
20
-110.64325367196696
30
0
11
-125.39816598918941
21
-117.91988605871018
31
0
0
LINE
5
168
100
AcDbEntity
8
0
100
AcDbLine
10
-125.39816598918941
20
-117.91988605871018
30
0
11
-95.624672804644689
21
-107.03737239734197
31
0
0
LINE
5
169
100
AcDbEntity
8
0
100
AcDbLine
10
-95.624672804644689
20
-107.03737239734197
30
0
11
-85.67827661385833
21
-93.250813623815048
31
0
0
LINE
5
170
100
AcDbEntity
8
0
100
AcDbLine
10
-85.67827661385833
20
-93.250813623815048
30
0
11
-38.63522323146605
21
-55.445130179217074
31
0
0
ARC
5
171
100
AcDbEntity
8
0
100
AcDbCircle
10
-24.287321395650807
20
-73.298771496843358
30
0
40
22.90447107856113
210
0
220
0
230
1
100
AcDbArc
50
95.394765910324764
51
128.78675430410476
0
LINE
5
172
100
AcDbEntity
8
0
100
AcDbLine
10
-26.440739441843796
20
-50.495754457272177
30
0
11
0.00025902530134569446
21
-50.486751100800561
31
0
0
LINE
5
173
100
AcDbEntity
8
0
100
AcDbLine
10
0.00025902530134569446
20
-50.486751100800561
30
0
11
26.440897836511414
21
-50.486594059760804
31
0
0
CIRCLE
5
174
100
AcDbEntity
8
0
100
AcDbCircle
10
37.749806969436946
20
25.624967569511121
30
0
40
1.6100000000000001
210
0
220
-0
230
1
0
CIRCLE
5
175
100
AcDbEntity
8
0
100
AcDbCircle
10
104.99999999814804
20
79.62536699043568
30
0
40
2.5
210
0
220
-0
230
1
0
CIRCLE
5
176
100
AcDbEntity
8
0
100
AcDbCircle
10
124.99938824150561
20
96.12548577929941
30
0
40
1.6099999999999959
210
0
220
-0
230
1
0
LWPOLYLINE
5
177
100
AcDbEntity
8
0
100
AcDbPolyline
90
4
70
1
43
0.0
10
103.49999999814804
20
89.12536699043568
10
103.49999999814804
20
87.62536699043568
42
0.99999999999999989
10
106.49999999814804
20
87.62536699043568
10
106.49999999814804
20
89.12536699043568
42
0.99999999999999989
0
LWPOLYLINE
5
178
100
AcDbEntity
8
0
100
AcDbPolyline
90
4
70
1
43
0.0
10
106.49999999814804
20
70.12536699043568
10
106.49999999814804
20
71.62536699043568
42
0.99999999999999989
10
103.49999999814804
20
71.62536699043568
10
103.49999999814804
20
70.12536699043568
42
0.99999999999999989
0
LWPOLYLINE
5
179
100
AcDbEntity
8
0
100
AcDbPolyline
90
4
70
1
43
0.0
10
95.499999998148041
20
78.12536699043568
10
96.999999998148041
20
78.12536699043568
42
0.99999999999999989
10
96.999999998148041
20
81.12536699043568
10
95.499999998148041
20
81.12536699043568
42
0.99999999999999989
0
CIRCLE
5
180
100
AcDbEntity
8
0
100
AcDbCircle
10
-37.750193029231383
20
25.624519146211419
30
0
40
1.6100000000000001
210
0
220
-0
230
1
0
CIRCLE
5
181
100
AcDbEntity
8
0
100
AcDbCircle
10
-125.00061175408497
20
96.124000933936159
30
0
40
1.6099999999999959
210
0
220
-0
230
1
0
LWPOLYLINE
5
182
100
AcDbEntity
8
0
100
AcDbPolyline
90
4
70
1
43
0.0
10
-106.5009324809303
20
71.624101896647801
10
-106.50091466278595
20
70.124101896753643
42
0.99999999999999989
10
-103.5009146629976
20
70.124137533042372
10
-103.50093248114197
20
71.624137532936516
42
0.99999999999999989
0
LWPOLYLINE
5
183
100
AcDbEntity
8
0
100
AcDbPolyline
90
4
70
1
43
0.0
10
-97.001009693559496
20
78.124214744436827
10
-95.50100969366531
20
78.12423256258117
42
0.99999999999999989
10
-95.501045329954039
20
81.124232562369542
10
-97.001045329848125
20
81.124214744225171
42
0.99999999999999989
0
LWPOLYLINE
5
184
100
AcDbEntity
8
0
100
AcDbPolyline
90
4
70
1
43
0.0
10
-114.50100969232486
20
78.124006866085978
10
-113.00100969243063
20
78.124024684230321
42
0.99999999999999989
10
-113.00104532871933
20
81.124024684018678
10
-114.50104532861349
20
81.124006865874321
42
0.99999999999999989
0
CIRCLE
5
185
100
AcDbEntity
8
0
100
AcDbCircle
10
-105.0010275111394
20
79.624119714227746
30
0
40
2.5
210
0
220
-0
230
1
0
LWPOLYLINE
5
186
100
AcDbEntity
8
0
100
AcDbPolyline
90
4
70
1
43
0.0
10
-103.50112254134844
20
87.62413753180769
10
-103.50114035949281
20
89.124137531701848
42
0.99999999999999989
10
-106.50114035928114
20
89.124101895413133
10
-106.50112254113678
20
87.62410189551899
42
0.99999999999999989
0
CIRCLE
5
187
100
AcDbEntity
8
0
100
AcDbCircle
10
-37.749806969436932
20
-39.375480852642099
30
0
40
1.6100000000000001
210
0
220
-0
230
1
0
CIRCLE
5
188
100
AcDbEntity
8
0
100
AcDbCircle
10
-124.99938824150563
20
-109.87599906243035
30
0
40
1.6099999999999959
210
0
220
-0
230
1
0
ARC
5
189
100
AcDbEntity
8
0
100
AcDbCircle
10
23.326617255439629
20
-14.138338871136433
30
0
40
1.5566268998202306
210
0
220
0
230
1
100
AcDbArc
50
-179.99965971255696
51
0.00034028637199788711
0
LINE
5
190
100
AcDbEntity
8
0
100
AcDbLine
10
21.769990355646854
20
-14.138348116154393
30
0
11
21.769904081141327
21
0.38809374310480926
31
0
0
ARC
5
191
100
AcDbEntity
8
0
100
AcDbCircle
10
23.326530980934095
20
0.38810298812279642
30
0
40
1.5566268998202395
210
0
220
-0
230
1
100
AcDbArc
50
0.00034028637199788711
51
180.00034028744304
0
LINE
5
192
100
AcDbEntity
8
0
100
AcDbLine
10
24.883157880726881
20
0.38811223314076482
30
0
11
24.883244155232408
21
-14.138329626118473
31
0
0
CIRCLE
5
193
100
AcDbEntity
8
0
100
AcDbCircle
10
125.00061175408496
20
-109.8745142170671
30
0
40
1.6099999999999959
210
0
220
-0
230
1
0
CIRCLE
5
194
100
AcDbEntity
8
0
100
AcDbCircle
10
105.00102751113937
20
-93.374632997358717
30
0
40
2.5
210
0
220
-0
230
1
0
LWPOLYLINE
5
195
100
AcDbEntity
8
0
100
AcDbPolyline
90
4
70
1
43
0.0
10
103.50091466299759
20
-83.874650816173371
10
103.50093248114194
20
-85.374650816067486
42
0.99999999999999989
10
106.5009324809303
20
-85.374615179778758
10
106.50091466278595
20
-83.874615179884643
42
0.99999999999999989
0
LWPOLYLINE
5
196
100
AcDbEntity
8
0
100
AcDbPolyline
90
4
70
1
43
0.0
10
106.50114035928114
20
-102.87461517854412
10
106.50112254113679
20
-101.37461517864993
42
0.99999999999999989
10
103.50112254134844
20
-101.37465081493866
10
103.50114035949281
20
-102.87465081483285
42
0.99999999999999989
0
LWPOLYLINE
5
197
100
AcDbEntity
8
0
100
AcDbPolyline
90
4
70
1
43
0.0
10
97.001009715911152
20
-91.874728027567571
10
95.501009693665267
20
-91.874745845712141
42
0.99999999999999989
10
95.501045329953982
20
-94.874745845500513
10
97.001045329848154
20
-94.874728027356113
42
0.9999999925494194
0
LWPOLYLINE
5
198
100
AcDbEntity
8
0
100
AcDbPolyline
90
4
70
1
43
0.0
10
113.00104532871933
20
-94.874537967149678
10
114.50104532861347
20
-94.874520149005278
42
0.99999999999999989
10
114.50100969232477
20
-91.874520149216906
10
113.0010096924306
20
-91.874537967361306
42
0.99999999999999989
0
CIRCLE
5
199
100
AcDbEntity
8
0
100
AcDbCircle
10
-104.99999999814806
20
-93.375880273566679
30
0
40
2.5
210
0
220
-0
230
1
0
CIRCLE
5
200
100
AcDbEntity
8
0
100
AcDbCircle
10
37.750193029231404
20
-39.375032429342376
30
0
40
1.6100000000000001
210
0
220
-0
230
1
0
LWPOLYLINE
5
201
100
AcDbEntity
8
0
100
AcDbPolyline
90
4
70
1
43
0.0
10
-96.999999998148056
20
-94.875880273566665
42
-0.99999999999999989
10
-96.999999998148056
20
-91.875880273566693
10
-95.499999998148084
20
-91.875880273566807
42
-0.99999999999999989
10
-95.499999998148041
20
-94.875880273566665
0
LWPOLYLINE
5
202
100
AcDbEntity
8
0
100
AcDbPolyline
90
4
70
1
43
0.0
10
-103.49999999814807
20
-85.375880273566679
10
-103.49999999814807
20
-83.875880273566693
42
0.99999999999999989
10
-106.49999999814808
20
-83.875880273566693
10
-106.49999999814804
20
-85.375880273566679
42
0.99999999999999989
0
LWPOLYLINE
5
203
100
AcDbEntity
8
0
100
AcDbPolyline
90
4
70
1
43
0.0
10
-106.49999999814804
20
-101.37588027356665
10
-106.49999999814804
20
-102.87588027356671
42
0.99999999999999989
10
-103.49999999814807
20
-102.87588027356671
10
-103.49999999814804
20
-101.37588027356665
42
0.99999999999999989
0
LWPOLYLINE
5
204
100
AcDbEntity
8
0
100
AcDbPolyline
90
4
70
1
43
0.0
10
-114.49999999814806
20
-94.875880273566665
10
-112.99999999814803
20
-94.875880273566665
42
0.99999999999999989
10
-112.9999999981481
20
-91.875880273566693
10
-114.49999999814807
20
-91.875880273566665
42
0.99999999999999989
0
LWPOLYLINE
5
205
100
AcDbEntity
8
0
100
AcDbPolyline
90
4
70
1
43
0.0
10
112.99999999814804
20
78.12536699043568
10
114.49999999814804
20
78.12536699043568
42
0.99999999999999989
10
114.49999999814804
20
81.12536699043568
10
112.99999999814804
20
81.12536699043568
42
0.99999999999999989
0
CIRCLE
5
206
100
AcDbEntity
8
0
100
AcDbCircle
10
12.013612952307678
20
110.2583890003099
30
0
40
3.5000000000000009
210
0
220
-0
230
1
0
ENDSEC
0
SECTION
2
OBJECTS
0
DICTIONARY
5
C
100
AcDbDictionary
3
ACAD_GROUP
350
D
3
ACAD_MLINESTYLE
350
17
0
DICTIONARY
5
D
100
AcDbDictionary
0
DICTIONARY
5
1A
330
C
100
AcDbDictionary
0
DICTIONARY
5
17
100
AcDbDictionary
0
ENDSEC
0
EOF
